<?xml version="1.0" encoding="UTF-8"?>
<!DOCTYPE svg PUBLIC "-//W3C//DTD SVG 1.1//EN" "http://www.w3.org/Graphics/SVG/1.1/DTD/svg11.dtd">
<!-- Creator: CorelDRAW 2021 (64-Bit) -->
<svg xmlns="http://www.w3.org/2000/svg" xml:space="preserve" width="118.11mm" height="39.7086mm" version="1.1" style="shape-rendering:geometricPrecision; text-rendering:geometricPrecision; image-rendering:optimizeQuality; fill-rule:evenodd; clip-rule:evenodd"
viewBox="0 0 11811 3970.86"
 xmlns:xlink="http://www.w3.org/1999/xlink"
 xmlns:xodm="http://www.corel.com/coreldraw/odm/2003">
 <defs>
  <style type="text/css">
   <![CDATA[
    .str0 {stroke:#373435;stroke-width:20;stroke-miterlimit:22.9256}
    .fil7 {fill:#F2F3BB}
    .fil6 {fill:#F1EA4B}
    .fil5 {fill:#989B6B}
    .fil0 {fill:#282829}
    .fil3 {fill:#6C6D6D}
    .fil2 {fill:#898A8A}
    .fil1 {fill:#959595}
    .fil4 {fill:#B6B6B6}
   ]]>
  </style>
    <clipPath id="id0">
     <rect x="182.03" y="33.1" width="11674.78" height="3925.06"/>
    </clipPath>
 </defs>
 <g id="Capa_x0020_1">
  <metadata id="CorelCorpID_0Corel-Layer"/>
  <g id="_1319305696176">
   <g style="clip-path:url(#id0)">
    <image x="182.03" y="33.1" width="11674.77" height="3925.07" xlink:href="logo-hp_Images\logo-hp_ImgID1.png"/>
   </g>
   <path class="fil0" d="M1688.62 2026.69c13.97,-19.4 14.81,-19.35 17.15,9.16 -8.14,75.48 9.97,267.93 12.41,357.45 4.87,178.83 3.91,567.3 -35.61,730.45 -36.68,151.44 -103.2,156.49 -167.21,215.1 5.34,26.96 10.54,29.75 20.19,52.01 130.25,-7.4 259.2,-14.78 390.91,-6.14 76.83,5.04 322.36,42.53 370.17,35.25 31.68,-92.12 -111.04,1.64 -149.85,-289.69 -18.84,-141.48 -13.96,-1192.97 -13.67,-1374.29 63.93,-36.02 168.92,-66.26 257.63,-75.41 -29,40.7 -72.25,68.66 -105.74,112.66 -120.48,158.31 -77.27,162.48 30.54,491.54 18.15,55.4 35.39,107.54 53.68,164.02 26.61,82.18 20.64,98.28 110.53,114.96 108.39,20.12 176.98,-108.8 278.96,-153.15 3.91,80.02 13.82,137.18 92.6,144.71 134.28,12.83 155.37,-99.57 209.41,-145.44 37.22,-31.59 171.02,-138.72 188.28,-176.71 -53.62,3.88 -69.02,7.24 -118.5,-9.97 -16.94,-239.72 45.53,-685.72 -16.58,-895.56 -19.3,-65.22 -103.23,-170.02 -145.13,-206.49l-170.09 -181.26c-36.16,-40.09 -81.98,-81.19 -112.32,-120.27 -98.96,-1.33 -386.51,192.47 -437.6,242.86 0.07,65.8 44.98,155.93 72.41,204.26 17.66,31.11 80.45,157.68 113.95,170.69l20.3 -9.78c2.12,-46.36 -6.01,-99.33 9.22,-141.42 20.42,-56.42 231.17,-156.05 285.89,-164.4 32,339.66 42.3,637.3 29.14,978.19 -1.79,46.2 -0.61,118.06 -7.37,160.39 -6.09,38.14 -49.56,78.3 -87.5,88.78 -28.55,-73.4 -57.52,-193.6 -81.2,-276.93 -25.09,-88.3 -43.41,-219.62 -51.13,-315.73 32.15,-30.81 55.07,-60.83 85.9,-87.04 52.78,-44.85 86.13,-54.64 95.75,-82.27 -69.27,-19.67 -236.82,-17.65 -317.92,-12.47 -53.68,3.44 -265.66,40.38 -287.42,34.93 -13.48,-189.87 -4.64,-412.74 -4.57,-605.78 0.06,-186.23 -12.24,-295.18 84.97,-450.07 20.02,-31.89 23.58,-14.73 34.3,-52.89 -181.6,0.29 -283.38,24.71 -513.5,16 -47.96,-1.82 -111.56,-16.28 -154.59,-11.09 6.96,114.02 79.51,-52.68 95.21,238.42 6.57,121.76 51.61,964.88 27.09,1012.84 -47.52,48.18 -330.33,237.34 -417.89,241.25 -5.32,-120.1 -52.45,-1138.07 -11.18,-1238.44 24.03,-58.45 66.85,-55.3 65.93,-113.1 -168.9,-3.75 -365.75,11.3 -541.61,12.41 -54.11,0.34 -131.33,-16.13 -168.08,6.14 11.09,53.21 30.08,6.48 104.57,92.16 37.91,43.62 31.6,97.5 34.79,167.13 13.48,294.41 42.89,908 30.94,1151.94 -61.19,-7.91 -158.44,-68.71 -209.25,-95.65 -45.66,-24.22 -161.08,-92.74 -178.29,-134 33.49,-14.3 71.99,-42.1 110.6,-63.01 23.06,-12.49 35.96,-19.16 59.91,-32.46 25.63,-14.24 38.85,-14.79 37.58,-51.02 -209.88,30.44 -141.91,24.5 -318.84,72.88 4.25,89.86 140.33,266.1 183.9,296.03 113.66,78.08 250.86,117.81 318.98,164.77 15.67,179.13 5.34,395.66 1.48,577.48 -5.05,237.68 -68.21,237.12 -192.18,310.31 -19.2,11.34 -10.04,0.42 -17.9,16.68 -14.34,29.63 2.22,24.57 2.44,24.94 20.36,19.4 588.06,0.19 785.85,50.37 1.29,0.32 19.14,4.64 19.4,4.66 26.94,1.48 15.36,-1.3 24.34,-5.26 -12.15,-40.71 -44.39,-39.11 -78.13,-66.64 -93.84,-76.56 -58.36,-182.16 -60.33,-376.92 -1.94,-191.07 -7.2,-384.83 -4.92,-576.02 157.67,-37.66 301.09,-89.5 408.8,-167.05z"/>
   <path class="fil0" d="M7772.63 1706.9c14.81,-29.58 167.23,-95.3 259.54,-75.5 59.41,188.22 62.79,692.51 31.54,919.2 -7.94,57.63 -5.62,90.02 -50.26,116.7 -114.5,68.44 -124.07,50.56 -175.4,-13.23 -26.69,-33.17 -24.76,-35.6 -29.08,-86.1 -28.03,-327.39 -35.94,-543.06 -36.34,-861.07zm-925.98 -32.09c-56.76,-3.82 -67.37,-43.94 -95.19,-76.77 -28.38,-33.49 -52.14,-49.54 -73.93,-89.51 41.85,1.2 84.88,7.84 125.38,13.56 188.74,26.7 95.2,54.59 43.74,152.72zm-258.15 -1227.47c30.07,-21.04 206.45,-61.96 254.36,-53.16 64.53,162.97 75.52,797.92 74.58,1010.55 -52.59,8.48 -115.65,-4.27 -178.55,4.38 -42.85,5.89 -111.15,22.4 -150.47,17.52 -3.73,-124.15 -14.75,-915.12 0.08,-979.29zm1178.67 1100.55c-2.53,-52.43 4.29,-61.72 37.36,-85.49 23.49,-16.88 44.57,-33.8 67.46,-49.42 22.16,-15.14 120.19,-82.14 139.35,-86.97 13.78,107.81 -83.23,197.09 -157.57,227.61 -29.27,12.01 -59.96,34.41 -85.22,31.33l-1.38 -37.06zm-1777.36 771.14l-8.11 8.21 259.67 1588.52c24.17,-45.49 89.18,-864.51 82.97,-952.18l1.47 -33.3c31.6,7.92 6.64,1 17.06,13.77 5.34,22.06 91.76,212.16 129.22,223.98l11.81 -1014.14 104.9 200.73c42.53,85.48 17.39,55.51 48,66.55 16.65,-52.09 -41.04,-763.85 -42.89,-899.39 26.44,17.67 123.01,186.34 151.94,232.8 10.72,17.2 15.17,24.96 25.17,41.75 11.26,18.93 15.93,31.87 30.62,38.79 61.97,29.2 378.22,-84.54 477.32,-192.98 28.27,3.3 52.2,10.12 79.11,19.26 28.25,9.59 51.16,14.09 62.61,37.13 0.25,205.5 -12.9,452.15 1.83,652.54 10.51,142.81 81.53,213.05 188.19,296.09 33.45,26.04 58.33,48.09 92.55,74.88 165.47,129.57 183.36,177.87 461,38.04 38.75,-19.51 66.59,-31.47 104.86,-54.79 123.38,-75.18 157.79,-170.09 172.95,-320.61 22.39,-222.3 -0.37,-396.54 -23.3,-611.16 -30.68,-287.23 -23.45,-296.57 -202.88,-451.19 -181.64,-156.54 -233.3,-155.8 -438.37,-37.3 -466.35,269.51 -236.92,196.54 -347.91,302.08l-124.7 -35.99c-4.76,-133.29 79.03,-715.5 51.07,-791.61 -23.86,-64.96 -184.64,-254.82 -244.3,-325.1l-129.31 -155.09c-80.28,-84.85 -45.7,-87.67 -182.37,-38.99 -54.54,19.42 -159.56,64.94 -215.08,69.5l4.53 -197.54 -605.69 -10.55c7.47,134.04 69.03,536.03 89.59,701.58 28.19,226.9 75.65,483.29 83.83,711.53 -64.43,-26.24 -105.26,-69.08 -185.49,-84.79 1.38,77.44 59.38,390.48 75.29,496.63 23.9,159.51 56.11,347.49 65.13,508.49 -45.27,-12.12 -68.33,-65.14 -122.29,-116.15z"/>
   <path class="fil0" d="M10753.41 1341.67l96.55 -0.36c6.43,321.36 22.3,732.43 18.15,1043.47 -2.21,165.13 7.94,333.29 -148.19,419.53 -21.52,11.89 -39.31,11.43 -59.33,24.03l11.5 36.68c50.22,10.88 86.89,-10.44 234.77,26.29 69.46,17.25 132.9,39.52 202.94,56.63 187.2,45.73 328.63,50.02 526.65,45.2l4.41 -39.19c-46.18,-26.43 -267.73,-26.42 -355.52,-156.67 -38.25,-56.76 -51.93,-848.43 -54.32,-973.22 -2.55,-133.33 -26.77,-394.02 -10.47,-510.51l66.14 -44.69c23.34,38.73 65.51,192.8 82.01,248.13 13.35,44.79 37.39,84.13 14.71,117.87 -23.08,34.34 -53.74,60.64 -67.11,97.14 14.23,21.33 10.05,16.13 30,31.63 27.77,-10.42 357.12,-267.31 373.36,-311.18 35.15,-94.98 -200.06,-454.49 -222.72,-462.72 -41.48,-1.28 -103.64,47.68 -138.3,68.52 -41.71,25.09 -95.11,62.51 -136.67,78.62 -6.29,-62.89 -5.11,-157.75 -34.19,-198.74 -39.65,1.24 -91.55,56.26 -121.82,86.56l-165.19 144.49c-47.58,36.87 -143.76,111.63 -147.36,172.49z"/>
   <path class="fil0" d="M9187.09 1339.43l58.18 -0.36c2.63,158.39 18.84,749.62 12.33,861.6l-1.97 636.12c3.9,107.17 -13.84,132.22 65.47,183.73 101.35,65.84 225.45,113.31 350.24,160.52 59.56,22.53 124.3,44.51 186.39,64.81 80.12,26.19 126.6,60.16 178.4,-3.6 19.22,-23.67 36.8,-47.79 55.88,-69.86l125.04 -126.03c30.79,-29.52 65.63,-52.33 41.28,-76.52 -45.35,-21.16 -438.59,-33.07 -504.48,-25.81 36.56,62.95 226.75,44.61 291.82,88.58 -1.07,41.16 -138.84,130.35 -138.84,130.35 -31.33,-3.76 -240.45,-114.83 -264.99,-134.8 -13.03,-451.29 -38.97,-1266.17 -26.59,-1684.57l247.45 -15.25 8.23 -128.04 -262.43 1.89c-19.47,-126.76 -5.59,-484.41 -34.69,-566.1 -44.63,3.94 -52.43,44.07 -74.56,85.65 -59.76,112.32 -113.72,202.66 -189.56,304.27 -49.79,66.71 -98.76,120.51 -147.76,178.89 -45.4,54.09 -185.58,135.93 25.16,134.53z"/>
   <path class="fil0" d="M5463.74 1305.18c-11.68,41.69 -40.41,138.9 -56.82,178.34 -25.39,61.01 -220.01,406.76 -259.45,455.1 -17.23,-28.75 -144.53,-474.72 -126.99,-508.45 31.49,-32.83 80.92,-34.26 97.97,-73.03l-518.02 22.87c-43.53,1.28 -46.12,-7.3 -55.92,25.6 40.65,16.31 60.6,11.67 80.12,43.24 11.29,18.26 26.04,68.18 34.15,91.19l181.22 572.11c19.77,66.1 38.21,126.52 57.76,193.35 22.35,76.4 6.92,64.27 -57.46,168.22l-197.58 311.28c-231.01,15.85 -478.15,22.17 -704.55,-49.28 3.8,-115.92 46.83,-128.86 99.74,-143.68 54.51,-15.27 147.02,-31.38 184.81,-55.39 -22.02,-25.17 -133.15,-24.43 -173.47,-28.29 -52.16,-5 -136.56,-25.52 -168.9,1.12 -37.07,30.54 -158.17,162.34 -169.22,235.17 58.5,57.84 351.66,153.25 459.15,179.14 170.7,41.12 398.67,79.63 583.44,66.39 14.98,-33.72 45.11,-64.95 69.06,-98.86 169.92,-240.57 321.55,-471.78 463.13,-734.07 88.6,-164.14 345.7,-621.94 414.57,-781.65 16.48,-38.2 53.03,-81.59 53.28,-117.93 -89.81,12.19 -290.62,-14.29 -398.07,-16.91 17.14,17.23 18.38,21.9 43.79,35.66l64.26 28.76z"/>
   <path class="fil0" d="M8308.61 1070.85l0.58 47.3 282.06 2.74c64.56,559.85 -15.55,1039.4 -15.1,1623.76 0.11,138.78 106.98,168.56 204.11,222.82 56.58,31.62 243.42,136.62 301.07,138.84l25.83 -33.97 -77.95 -61.1c-133.94,-104.76 -106.71,-101.06 -99.71,-300.1 6.04,-171.54 12.86,-347.55 22.48,-518.82 9.59,-170.69 17.39,-356.28 17.55,-527.27 0.15,-161.87 -11.97,-382.42 6.88,-535.02l203.15 -5.95c3.24,-33.9 -0.16,-53.46 -3.76,-82.04 -1.4,-11.07 -2.46,-28.52 -4.35,-38.39l-13.18 -31.49 -185.25 -9.17c-36.38,-349.86 50.2,-592.13 -98.12,-396.85 -267.34,351.94 -501.82,442.9 -566.29,504.71z"/>
   <path class="fil0" d="M10192.63 1680.53c-3.12,-56.84 12.19,-332.89 28.66,-395.5 12.21,-46.46 20.45,-64.21 72.12,-62.77 20.09,37.57 183.85,452.79 185.65,485.84l-286.43 -27.57zm-379.3 706.91c70.45,57.3 284.8,329.49 413,346.64 207.72,27.8 174.62,0.85 349.38,-224.32 105.29,-135.65 94.97,-94.98 15.32,-223.15 -13.51,-21.76 -21.29,-31.41 -33.87,-49.88 -14.97,-21.96 -16.45,-36.18 -48.58,-31.27l-15.2 54.92c-22.23,117.9 -72.43,305.78 -127.96,398.61 -155.82,-51.66 -161.66,-243.46 -167.22,-358.23 -4.99,-103.04 -21.35,-434 0.89,-510.46 119.51,1.49 272.46,51.98 388.13,81.63 96.63,24.77 93.76,9.42 141.5,-54.5 21.2,-28.37 80.3,-118.6 71.96,-158.03l-127.83 -341.94c-29.15,-83.21 -201.94,-148.05 -282.36,-186.73 -66.31,-31.89 -124.55,-45.93 -181.48,-0.34l-324.7 260.94c-34.02,25.09 -27.63,26.79 -34.26,81.67 -41.57,344.2 -26.88,337.74 -23.14,677.46 0.98,88.85 -13.05,159.18 -13.58,236.98z"/>
   <path class="fil0" d="M3086.63 927.84c39.02,17.74 166.68,4.45 221.5,4.91 27.88,63.08 24.93,981.53 24.93,1167.49 0,54 13.3,151.71 -20.52,184.57 -44.91,43.65 -78.28,22.83 -104.72,99.97 125.57,2.76 517.11,14.65 614.31,-5.53 -8.07,-66.73 -69.7,-23.67 -85.38,-110.66 -19.09,-105.83 -61.75,-797.12 -64.7,-921.56 -1.52,-64.05 -5.63,-128.86 -7.22,-192.22 -0.85,-33.68 -1.07,-66.98 -2.53,-100.69 -1.76,-40.52 -9.87,-67.36 10.12,-94.47 43.84,-5.44 62.87,114.54 75.43,160.64 16.52,60.61 45.93,140.54 51.39,204.49 -31.17,23.77 -69.14,42.37 -38.33,75.53 17.11,8.49 -23.75,14.63 25.35,4.33l256.36 -155.45c37.46,-25.13 61.1,-33.79 45.85,-100.67 -16.05,-70.39 -54.07,-147 -80.14,-213.08 -59.93,-151.92 -83.28,-259.01 -247.02,-151.87 -25.6,16.74 -82.13,57.46 -102.37,65.92 -17.57,-43.65 -17.54,-127.13 -25.24,-184.05 -5.02,-37.11 1.25,-37.05 -24.57,-50.6 -73.33,-38.47 -114.3,3.06 -192.77,58.33 -60.43,42.56 -113.99,80.03 -171.13,121.61 -26.61,19.38 -55.21,39.54 -83.17,59.19 -55.62,39.08 -72.4,42.45 -75.43,73.87z"/>
   <path class="fil0" d="M4576.61 2266.6c2.41,-0.01 23.61,0.06 24.05,-0.07 24.09,-7.4 3.16,5.05 17.52,-10.74 -105.67,-88.42 -84.25,-105.23 -85.83,-281.08 -1.42,-158.51 -16.13,-1017.35 -0.96,-1100.31l60.63 -8.84c18.24,39.1 76.02,234.72 75.63,272.24l-61.61 74.13 25.09 27.92c78.63,-2.6 282.07,-169.42 347.22,-207.02 6.12,-85.01 -146.88,-418.32 -201.73,-430.12 -60,-12.92 -210.2,146.67 -233.58,123.23 -31.47,-54.63 2.42,-212.58 -22.73,-277.54 -43.96,-57.59 -162.92,90.58 -223.84,150.66l-152.67 148.55c-28.33,25.68 -46.85,21.92 -44.76,64l75.15 -11.03c0.91,212.28 -1.9,988.93 -24.99,1190.95 -11.4,99.74 -30.48,143.32 -100.45,200.67 -10.11,8.28 -19.09,13.13 -29.77,20.7 -35.42,25.14 -15.78,1.77 -30.37,32.97 127.13,39.61 100.43,38.9 277.64,20.01 111.27,-11.87 204.31,4.79 310.36,0.72z"/>
   <path class="fil1" d="M4576.61 2266.6c21.73,13.56 21.04,9.49 51.14,9.81 1.8,-42.12 2.15,-3.8 -9.57,-20.62 -14.36,15.79 6.57,3.34 -17.52,10.74 -0.44,0.13 -21.64,0.06 -24.05,0.07z"/>
   <path class="fil2" d="M6324.34 2963.58c14.72,-21.89 8.61,-10.49 18.53,-19.53 -10.42,-12.77 14.54,-5.85 -17.06,-13.77l-1.47 33.3z"/>
   <path class="fil3" d="M1705.77 2035.85c-2.34,-28.51 -3.18,-28.56 -17.15,-9.16 9.84,4.71 6.56,-0.89 17.15,9.16z"/>
   <polygon class="fil4" points="5981.7,2327.24 5989.81,2319.03 5973.65,2307.65 "/>
   <path class="fil5 str0" d="M1279.82 1998.36c-5.32,-120.1 -52.45,-1138.07 -11.18,-1238.44 24.03,-58.45 66.85,-55.3 65.93,-113.1 -168.9,-3.75 -365.75,11.3 -541.61,12.41 -54.11,0.34 -131.33,-16.13 -168.08,6.14 11.09,53.21 30.08,6.48 104.57,92.16 37.91,43.62 31.6,97.5 34.79,167.13 13.48,294.41 42.89,908 30.94,1151.94 -61.19,-7.91 -158.44,-68.71 -209.25,-95.65 -45.66,-24.22 -161.08,-92.74 -178.29,-134 33.49,-14.3 71.99,-42.1 110.6,-63.01 23.06,-12.49 35.96,-19.16 59.91,-32.46 25.63,-14.24 38.85,-14.79 37.58,-51.02 -209.88,30.44 -141.91,24.5 -318.84,72.88 4.25,89.86 140.33,266.1 183.9,296.03 113.66,78.08 250.86,117.81 318.98,164.77 15.67,179.13 5.34,395.66 1.48,577.48 -5.05,237.68 -68.21,237.12 -192.18,310.31 -19.2,11.34 -10.04,0.42 -17.9,16.68 -14.34,29.63 2.22,24.57 2.44,24.94 20.36,19.4 588.06,0.19 785.85,50.37 1.29,0.32 19.14,4.64 19.4,4.66 26.94,1.48 15.36,-1.3 24.34,-5.26 -12.15,-40.71 -44.39,-39.11 -78.13,-66.64 -93.84,-76.56 -58.36,-182.16 -60.33,-376.92 -1.94,-191.07 -7.2,-384.83 -4.92,-576.02 157.67,-37.66 301.09,-89.5 408.8,-167.05 13.97,-19.4 14.81,-19.35 17.15,9.16 -8.14,75.48 9.97,267.93 12.41,357.45 4.87,178.83 3.91,567.3 -35.61,730.45 -36.68,151.44 -103.2,156.49 -167.21,215.1 5.34,26.96 10.54,29.75 20.19,52.01 130.25,-7.4 259.2,-14.78 390.91,-6.14 76.83,5.04 322.36,42.53 370.17,35.25 31.68,-92.12 -111.04,1.64 -149.85,-289.69 -18.84,-141.48 -13.96,-1192.97 -13.67,-1374.29 63.93,-36.02 168.92,-66.26 257.63,-75.41 -29,40.7 -72.25,68.66 -105.74,112.66 -120.48,158.31 -77.27,162.48 30.54,491.54 18.15,55.4 35.39,107.54 53.68,164.02 26.61,82.18 20.64,98.28 110.53,114.96 108.39,20.12 176.98,-108.8 278.96,-153.15 3.91,80.02 13.82,137.18 92.6,144.71 134.28,12.83 155.37,-99.57 209.41,-145.44 37.22,-31.59 171.02,-138.72 188.28,-176.71 -53.62,3.88 -69.02,7.24 -118.5,-9.97 -16.94,-239.72 45.53,-685.72 -16.58,-895.56 -19.3,-65.22 -103.23,-170.02 -145.13,-206.49l-170.09 -181.26c-36.16,-40.09 -81.98,-81.19 -112.32,-120.27 -98.96,-1.33 -386.51,192.47 -437.6,242.86 0.07,65.8 44.98,155.93 72.41,204.26 17.66,31.11 80.45,157.68 113.95,170.69l20.3 -9.78c2.12,-46.36 -6.01,-99.33 9.22,-141.42 20.42,-56.42 231.17,-156.05 285.89,-164.4 32,339.66 42.3,637.3 29.14,978.19 -1.79,46.2 -0.61,118.06 -7.37,160.39 -6.09,38.14 -49.56,78.3 -87.5,88.78 -28.55,-73.4 -57.52,-193.6 -81.2,-276.93 -25.09,-88.3 -43.41,-219.62 -51.13,-315.73 32.15,-30.81 55.07,-60.83 85.9,-87.04 52.78,-44.85 86.13,-54.64 95.75,-82.27 -69.27,-19.67 -236.82,-17.65 -317.92,-12.47 -53.68,3.44 -265.66,40.38 -287.42,34.93 -13.48,-189.87 -4.64,-412.74 -4.57,-605.78 0.06,-186.23 -12.24,-295.18 84.97,-450.07 20.02,-31.89 23.58,-14.73 34.3,-52.89 -181.6,0.29 -283.38,24.71 -513.5,16 -47.96,-1.82 -111.56,-16.28 -154.59,-11.09 6.96,114.02 79.51,-52.68 95.21,238.42 6.57,121.76 51.61,964.88 27.09,1012.84 -47.52,48.18 -330.33,237.34 -417.89,241.25z"/>
   <path class="fil6 str0" d="M1670.62 744.27c6.57,121.76 51.61,964.88 27.09,1012.84 -47.52,48.18 -330.33,237.34 -417.89,241.25 -5.32,-120.1 -52.45,-1138.07 -11.18,-1238.44 24.03,-58.45 66.85,-55.3 65.93,-113.1 -168.9,-3.75 -365.75,11.3 -541.61,12.41 -54.11,0.34 -131.33,-16.13 -168.08,6.14 11.09,53.21 30.08,6.48 104.57,92.16 37.91,43.62 31.6,97.5 34.79,167.13 13.48,294.41 42.89,908 30.94,1151.94 -61.19,-7.91 -158.44,-68.71 -209.25,-95.65 -45.66,-24.22 -161.08,-92.74 -178.29,-134 33.49,-14.3 71.99,-42.1 110.6,-63.01 23.06,-12.49 35.96,-19.16 59.91,-32.46 25.63,-14.24 38.85,-14.79 37.58,-51.02 -209.88,30.44 -141.91,24.5 -318.84,72.88 4.25,89.86 140.33,266.1 183.9,296.03 113.66,78.08 250.86,117.81 318.98,164.77 15.67,179.13 5.34,395.66 1.48,577.48 -5.05,237.68 -68.21,237.12 -192.18,310.31 -19.2,11.34 -10.04,0.42 -17.9,16.68 -14.34,29.63 2.22,24.57 2.44,24.94 20.36,19.4 588.06,0.19 785.85,50.37 1.29,0.32 19.14,4.64 19.4,4.66 26.94,1.48 15.36,-1.3 24.34,-5.26 -12.15,-40.71 -44.39,-39.11 -78.13,-66.64 -93.84,-76.56 -58.36,-182.16 -60.33,-376.92 -1.94,-191.07 -7.2,-384.83 -4.92,-576.02 157.67,-37.66 301.09,-89.5 408.8,-167.05 13.97,-19.4 14.81,-19.35 17.15,9.16 -8.14,75.48 9.97,267.93 12.41,357.45 4.87,178.83 3.91,567.3 -35.61,730.45 -36.68,151.44 -103.2,156.49 -167.21,215.1 5.34,26.96 10.54,29.75 20.19,52.01 130.25,-7.4 259.2,-14.78 390.91,-6.14 76.83,5.04 322.36,42.53 370.17,35.25 31.68,-92.12 -111.04,1.64 -149.85,-289.69 -18.84,-141.48 -13.96,-1192.97 -13.67,-1374.29 63.93,-36.02 168.92,-66.26 257.63,-75.41 -29,40.7 -72.25,68.66 -105.74,112.66 -120.48,158.31 -77.27,162.48 30.54,491.54 18.15,55.4 35.39,107.54 53.68,164.02 26.61,82.18 20.64,98.28 110.53,114.96 108.39,20.12 176.98,-108.8 278.96,-153.15 3.91,80.02 13.82,137.18 92.6,144.71 134.28,12.83 155.37,-99.57 209.41,-145.44 37.22,-31.59 171.02,-138.72 188.28,-176.71 -53.62,3.88 -69.02,7.24 -118.5,-9.97 -16.94,-239.72 45.53,-685.72 -16.58,-895.56 -19.3,-65.22 -103.23,-170.02 -145.13,-206.49l-170.09 -181.26c-36.16,-40.09 -81.98,-81.19 -112.32,-120.27 -98.96,-1.33 -386.51,192.47 -437.6,242.86 0.07,65.8 44.98,155.93 72.41,204.26 17.66,31.11 80.45,157.68 113.95,170.69l20.3 -9.78c2.12,-46.36 -6.01,-99.33 9.22,-141.42 20.42,-56.42 231.17,-156.05 285.89,-164.4 32,339.66 42.3,637.3 29.14,978.19 -1.79,46.2 -0.61,118.06 -7.37,160.39 -6.09,38.14 -49.56,78.3 -87.5,88.78 -28.55,-73.4 -57.52,-193.6 -81.2,-276.93 -25.09,-88.3 -43.41,-219.62 -51.13,-315.73 32.15,-30.81 55.07,-60.83 85.9,-87.04 52.78,-44.85 86.13,-54.64 95.75,-82.27 -69.27,-19.67 -236.82,-17.65 -317.92,-12.47 -53.68,3.44 -265.66,40.38 -287.42,34.93 -13.48,-189.87 -4.64,-412.74 -4.57,-605.78 0.06,-186.23 -12.24,-295.18 84.97,-450.07 20.02,-31.89 23.58,-14.73 34.3,-52.89 -181.6,0.29 -283.38,24.71 -513.5,16 -47.96,-1.82 -111.56,-16.28 -154.59,-11.09 6.96,114.02 79.51,-52.68 95.21,238.42z"/>
   <path class="fil6 str0" d="M3308.13 932.75c27.88,63.08 24.93,981.53 24.93,1167.49 0,54 13.3,151.71 -20.52,184.57 -44.91,43.65 -78.28,22.83 -104.72,99.97 125.57,2.76 517.11,14.65 614.31,-5.53 -8.07,-66.73 -69.7,-23.67 -85.38,-110.66 -19.09,-105.83 -61.75,-797.12 -64.7,-921.56 -1.52,-64.05 -5.63,-128.86 -7.22,-192.22 -0.85,-33.68 -1.07,-66.98 -2.53,-100.69 -1.76,-40.52 -9.87,-67.36 10.12,-94.47 43.84,-5.44 62.87,114.54 75.43,160.64 16.52,60.61 45.93,140.54 51.39,204.49 -31.17,23.77 -69.14,42.37 -38.33,75.53 17.11,8.49 -23.75,14.63 25.35,4.33l256.36 -155.45c37.46,-25.13 61.1,-33.79 45.85,-100.67 -16.05,-70.39 -54.07,-147 -80.14,-213.08 -59.93,-151.92 -83.28,-259.01 -247.02,-151.87 -25.6,16.74 -82.13,57.46 -102.37,65.92 -17.57,-43.65 -17.54,-127.13 -25.24,-184.05 -5.02,-37.11 1.25,-37.05 -24.57,-50.6 -73.33,-38.47 -114.3,3.06 -192.77,58.33 -60.43,42.56 -113.99,80.03 -171.13,121.61 -26.61,19.38 -55.21,39.54 -83.17,59.19 -55.62,39.08 -72.4,42.45 -75.43,73.87 39.02,17.74 166.68,4.45 221.5,4.91z"/>
   <path class="fil6 str0" d="M4174.19 800.58c0.91,212.28 -1.9,988.93 -24.99,1190.95 -11.4,99.74 -30.48,143.32 -100.45,200.67 -10.11,8.28 -19.09,13.13 -29.77,20.7 -35.42,25.14 -15.78,1.77 -30.37,32.97 127.13,39.61 100.43,38.9 277.64,20.01 111.27,-11.87 204.31,4.79 310.36,0.72 2.41,-0.01 23.61,0.06 24.05,-0.07 7.76,-2.38 10.85,-2.71 11.95,-2.58 -0.08,-0.77 0.78,-2.89 5.57,-8.16 -105.67,-88.42 -84.25,-105.23 -85.83,-281.08 -1.42,-158.51 -16.13,-1017.35 -0.96,-1100.31l60.63 -8.84c18.24,39.1 76.02,234.72 75.63,272.24l-61.61 74.13 25.09 27.92c78.63,-2.6 282.07,-169.42 347.22,-207.02 6.12,-85.01 -146.88,-418.32 -201.73,-430.12 -60,-12.92 -210.2,146.67 -233.58,123.23 -31.47,-54.63 2.42,-212.58 -22.73,-277.54 -43.96,-57.59 -162.92,90.58 -223.84,150.66l-152.67 148.55c-28.33,25.68 -46.85,21.92 -44.76,64l75.15 -11.03z"/>
   <path class="fil6 str0" d="M4658.78 1540.04l181.22 572.11c19.77,66.1 38.21,126.52 57.76,193.35 22.35,76.4 6.92,64.27 -57.46,168.22l-197.58 311.28c-231.01,15.85 -478.15,22.17 -704.55,-49.28 3.8,-115.92 46.83,-128.86 99.74,-143.68 54.51,-15.27 147.02,-31.38 184.81,-55.39 -22.02,-25.17 -133.15,-24.43 -173.47,-28.29 -52.16,-5 -136.56,-25.52 -168.9,1.12 -37.07,30.54 -158.17,162.34 -169.22,235.17 58.5,57.84 351.66,153.25 459.15,179.14 170.7,41.12 398.67,79.63 583.44,66.39 14.98,-33.72 45.11,-64.95 69.06,-98.86 169.92,-240.57 321.55,-471.78 463.13,-734.07 88.6,-164.14 345.7,-621.94 414.57,-781.65 16.48,-38.2 53.03,-81.59 53.28,-117.93 -89.81,12.19 -290.62,-14.29 -398.07,-16.91 17.14,17.23 18.38,21.9 43.79,35.66l64.26 28.76c-11.68,41.69 -40.41,138.9 -56.82,178.34 -25.39,61.01 -220.01,406.76 -259.45,455.1 -17.23,-28.75 -144.53,-474.72 -126.99,-508.45 31.49,-32.83 80.92,-34.26 97.97,-73.03l-518.02 22.87c-43.53,1.28 -46.12,-7.3 -55.92,25.6 40.65,16.31 60.6,11.67 80.12,43.24 11.29,18.26 26.04,68.18 34.15,91.19z"/>
   <path class="fil6 str0" d="M5971.68 1430.06c1.38,77.44 59.38,390.48 75.29,496.63 23.9,159.51 56.11,347.49 65.13,508.49 -45.27,-12.12 -68.33,-65.14 -122.29,-116.15l-8.11 8.21 259.67 1588.52c24.17,-45.49 89.18,-864.51 82.97,-952.18l1.47 -33.3c31.6,7.92 6.64,1 17.06,13.77 5.34,22.06 91.76,212.16 129.22,223.98l11.81 -1014.14 104.9 200.73c42.53,85.48 17.39,55.51 48,66.55 16.65,-52.09 -41.04,-763.85 -42.89,-899.39 26.44,17.67 123.01,186.34 151.94,232.8 10.72,17.2 15.17,24.96 25.17,41.75 11.26,18.93 15.93,31.87 30.62,38.79 61.97,29.2 378.22,-84.54 477.32,-192.98 28.27,3.3 52.2,10.12 79.11,19.26 28.25,9.59 51.16,14.09 62.61,37.13 0.25,205.5 -12.9,452.15 1.83,652.54 10.51,142.81 81.53,213.05 188.19,296.09 33.45,26.04 58.33,48.09 92.55,74.88 165.47,129.57 183.36,177.87 461,38.04 38.75,-19.51 66.59,-31.47 104.86,-54.79 123.38,-75.18 157.79,-170.09 172.95,-320.61 22.39,-222.3 -0.37,-396.54 -23.3,-611.16 -30.68,-287.23 -23.45,-296.57 -202.88,-451.19 -181.64,-156.54 -233.3,-155.8 -438.37,-37.3 -466.35,269.51 -236.92,196.54 -347.91,302.08l-124.7 -35.99c-4.76,-133.29 79.03,-715.5 51.07,-791.61 -23.86,-64.96 -184.64,-254.82 -244.3,-325.1l-129.31 -155.09c-80.28,-84.85 -45.7,-87.67 -182.37,-38.99 -54.54,19.42 -159.56,64.94 -215.08,69.5l4.53 -197.54 -605.69 -10.55c7.47,134.04 69.03,536.03 89.59,701.58 28.19,226.9 75.65,483.29 83.83,711.53 -64.43,-26.24 -105.26,-69.08 -185.49,-84.79zm874.97 244.75c-56.76,-3.82 -67.37,-43.94 -95.19,-76.77 -28.38,-33.49 -52.14,-49.54 -73.93,-89.51 41.85,1.2 84.88,7.84 125.38,13.56 188.74,26.7 95.2,54.59 43.74,152.72zm925.98 32.09c14.81,-29.58 167.23,-95.3 259.54,-75.5 59.41,188.22 62.79,692.51 31.54,919.2 -7.94,57.63 -5.62,90.02 -50.26,116.7 -114.5,68.44 -124.07,50.56 -175.4,-13.23 -26.69,-33.17 -24.76,-35.6 -29.08,-86.1 -28.03,-327.39 -35.94,-543.06 -36.34,-861.07zm-1184.21 -280.27c-3.73,-124.15 -14.75,-915.12 0.08,-979.29 30.07,-21.04 206.45,-61.96 254.36,-53.16 64.53,162.97 75.52,797.92 74.58,1010.55 -52.59,8.48 -115.65,-4.27 -178.55,4.38 -42.85,5.89 -111.15,22.4 -150.47,17.52zm1216.11 35.77c23.49,-16.88 44.57,-33.8 67.46,-49.42 22.16,-15.14 120.19,-82.14 139.35,-86.97 13.78,107.81 -83.23,197.09 -157.57,227.61 -29.27,12.01 -59.96,34.41 -85.22,31.33l-1.38 -37.06c-2.53,-52.43 4.29,-61.72 37.36,-85.49z"/>
   <path class="fil6 str0" d="M9245.27 1339.07c2.63,158.39 18.84,749.62 12.33,861.6l-1.97 636.12c3.9,107.17 -13.84,132.22 65.47,183.73 101.35,65.84 225.45,113.31 350.24,160.52 59.56,22.53 124.3,44.51 186.39,64.81 80.12,26.19 126.6,60.16 178.4,-3.6 19.22,-23.67 36.8,-47.79 55.88,-69.86l125.04 -126.03c30.79,-29.52 65.63,-52.33 41.28,-76.52 -45.35,-21.16 -438.59,-33.07 -504.48,-25.81 36.56,62.95 226.75,44.61 291.82,88.58 -1.07,41.16 -138.84,130.35 -138.84,130.35 -31.33,-3.76 -240.45,-114.83 -264.99,-134.8 -13.03,-451.29 -38.97,-1266.17 -26.59,-1684.57l247.45 -15.25 8.23 -128.04 -262.43 1.89c-19.47,-126.76 -5.59,-484.41 -34.69,-566.1 -44.63,3.94 -52.43,44.07 -74.56,85.65 -59.76,112.32 -113.72,202.66 -189.56,304.27 -49.79,66.71 -98.76,120.51 -147.76,178.89 -45.4,54.09 -185.58,135.93 25.16,134.53l58.18 -0.36z"/>
   <path class="fil6 str0" d="M8951.98 2192.32c9.59,-170.69 17.39,-356.28 17.55,-527.27 0.15,-161.87 -11.97,-382.42 6.88,-535.02l203.15 -5.95c3.24,-33.9 -0.16,-53.46 -3.76,-82.04 -1.4,-11.07 -2.46,-28.52 -4.35,-38.39l-13.18 -31.49 -185.25 -9.17c-36.38,-349.86 50.2,-592.13 -98.12,-396.85 -267.34,351.94 -501.82,442.9 -566.29,504.71l0.58 47.3 282.06 2.74c64.56,559.85 -15.55,1039.4 -15.1,1623.76 0.11,138.78 106.98,168.56 204.11,222.82 56.58,31.62 243.42,136.62 301.07,138.84l25.83 -33.97 -77.95 -61.1c-133.94,-104.76 -106.71,-101.06 -99.71,-300.1 6.04,-171.54 12.86,-347.55 22.48,-518.82z"/>
   <path class="fil6 str0" d="M9850.05 1473c-41.57,344.2 -26.88,337.74 -23.14,677.46 0.98,88.85 -13.05,159.18 -13.58,236.98 70.45,57.3 284.8,329.49 413,346.64 207.72,27.8 174.62,0.85 349.38,-224.32 105.29,-135.65 94.97,-94.98 15.32,-223.15 -13.51,-21.76 -21.29,-31.41 -33.87,-49.88 -14.97,-21.96 -16.45,-36.18 -48.58,-31.27l-15.2 54.92c-22.23,117.9 -72.43,305.78 -127.96,398.61 -155.82,-51.66 -161.66,-243.46 -167.22,-358.23 -4.99,-103.04 -21.35,-434 0.89,-510.46 119.51,1.49 272.46,51.98 388.13,81.63 96.63,24.77 93.76,9.42 141.5,-54.5 21.2,-28.37 80.3,-118.6 71.96,-158.03l-127.83 -341.94c-29.15,-83.21 -201.94,-148.05 -282.36,-186.73 -66.31,-31.89 -124.55,-45.93 -181.48,-0.34l-324.7 260.94c-34.02,25.09 -27.63,26.79 -34.26,81.67zm342.58 207.53c-3.12,-56.84 12.19,-332.89 28.66,-395.5 12.21,-46.46 20.45,-64.21 72.12,-62.77 20.09,37.57 183.85,452.79 185.65,485.84l-286.43 -27.57z"/>
   <path class="fil6 str0" d="M10849.96 1341.31c6.43,321.36 22.3,732.43 18.15,1043.47 -2.21,165.13 7.94,333.29 -148.19,419.53 -21.52,11.89 -39.31,11.43 -59.33,24.03l11.5 36.68c50.22,10.88 86.89,-10.44 234.77,26.29 69.46,17.25 132.9,39.52 202.94,56.63 187.2,45.73 328.63,50.02 526.65,45.2l4.41 -39.19c-46.18,-26.43 -267.73,-26.42 -355.52,-156.67 -38.25,-56.76 -51.93,-848.43 -54.32,-973.22 -2.55,-133.33 -26.77,-394.02 -10.47,-510.51l66.14 -44.69c23.34,38.73 65.51,192.8 82.01,248.13 13.35,44.79 37.39,84.13 14.71,117.87 -23.08,34.34 -53.74,60.64 -67.11,97.14 14.23,21.33 10.05,16.13 30,31.63 27.77,-10.42 357.12,-267.31 373.36,-311.18 35.15,-94.98 -200.06,-454.49 -222.72,-462.72 -41.48,-1.28 -103.64,47.68 -138.3,68.52 -41.71,25.09 -95.11,62.51 -136.67,78.62 -6.29,-62.89 -5.11,-157.75 -34.19,-198.74 -39.65,1.24 -91.55,56.26 -121.82,86.56l-165.19 144.49c-47.58,36.87 -143.76,111.63 -147.36,172.49l96.55 -0.36z"/>
  </g>
  <g id="_1319305695264">
   <path class="fil7 str0" d="M4532.35 1974.71c-1.42,-158.51 -16.13,-1017.35 -0.96,-1100.31l60.63 -8.84c18.24,39.1 76.02,234.72 75.63,272.24l-61.61 74.13 25.09 27.92c78.63,-2.6 282.07,-169.42 347.22,-207.02 6.12,-85.01 -146.88,-418.32 -201.73,-430.12 -60,-12.92 -210.2,146.67 -233.58,123.23 -31.47,-54.63 2.42,-212.58 -22.73,-277.54 -43.96,-57.59 -162.92,90.58 -223.84,150.66l-152.67 148.55c-28.33,25.68 -46.85,21.92 -44.76,64l75.15 -11.03c0.91,212.28 -1.9,988.93 -24.99,1190.95 -11.4,99.74 -30.48,143.32 -100.45,200.67 -10.11,8.28 -19.09,13.13 -29.77,20.7 -35.42,25.14 -15.78,1.77 -30.37,32.97 127.13,39.61 100.43,38.9 277.64,20.01 111.27,-11.87 204.31,4.79 310.36,0.72 2.41,-0.01 23.61,0.06 24.05,-0.07 7.76,-2.38 10.85,-2.71 11.95,-2.58 -0.08,-0.77 0.78,-2.89 5.57,-8.16 -105.67,-88.42 -84.25,-105.23 -85.83,-281.08z"/>
   <g>
    <path class="fil7 str0" d="M6588.42 1426.63c-3.73,-124.15 -14.75,-915.12 0.08,-979.29 30.07,-21.04 206.45,-61.96 254.36,-53.16 64.53,162.97 75.52,797.92 74.58,1010.55 -52.59,8.48 -115.65,-4.27 -178.55,4.38 -42.85,5.89 -111.15,22.4 -150.47,17.52zm716.48 124.49c-4.76,-133.29 79.03,-715.5 51.07,-791.61 -23.86,-64.96 -184.64,-254.82 -244.3,-325.1l-129.31 -155.09c-80.28,-84.85 -45.7,-87.67 -182.37,-38.99 -54.54,19.42 -159.56,64.94 -215.08,69.5l4.53 -197.54 -605.69 -10.55c7.47,134.04 69.03,536.03 89.59,701.58 28.19,226.9 75.65,483.29 83.83,711.53 -64.43,-26.24 -105.26,-69.08 -185.49,-84.79 1.38,77.44 59.38,390.48 75.29,496.63 23.9,159.51 56.11,347.49 65.13,508.49 -45.27,-12.12 -68.33,-65.14 -122.29,-116.15l-8.11 8.21 259.67 1588.52c24.17,-45.49 89.18,-864.51 82.97,-952.18l1.47 -33.3c31.6,7.92 6.64,1 17.06,13.77 5.34,22.06 91.76,212.16 129.22,223.98l11.81 -1014.14 104.9 200.73c42.53,85.48 17.39,55.51 48,66.55 16.65,-52.09 -41.04,-763.85 -42.89,-899.39 26.44,17.67 123.01,186.34 151.94,232.8 10.72,17.2 15.17,24.96 25.17,41.75 11.26,18.93 15.93,31.87 30.62,38.79 61.97,29.2 378.22,-84.54 477.32,-192.98 28.27,3.3 52.2,10.12 79.11,19.26 28.25,9.59 51.16,14.09 62.61,37.13 0.25,205.5 -12.9,452.15 1.83,652.54 10.51,142.81 81.53,213.05 188.19,296.09 33.45,26.04 58.33,48.09 92.55,74.88 165.47,129.57 183.36,177.87 461,38.04 38.75,-19.51 66.59,-31.47 104.86,-54.79 123.38,-75.18 157.79,-170.09 172.95,-320.61 22.39,-222.3 -0.37,-396.54 -23.3,-611.16 -30.68,-287.23 -23.45,-296.57 -202.88,-451.19 -181.64,-156.54 -233.3,-155.8 -438.37,-37.3 -466.35,269.51 -236.92,196.54 -347.91,302.08l-124.7 -35.99zm467.73 155.78c14.81,-29.58 167.23,-95.3 259.54,-75.5 59.41,188.22 62.79,692.51 31.54,919.2 -7.94,57.63 -5.62,90.02 -50.26,116.7 -114.5,68.44 -124.07,50.56 -175.4,-13.23 -26.69,-33.17 -24.76,-35.6 -29.08,-86.1 -28.03,-327.39 -35.94,-543.06 -36.34,-861.07zm31.9 -244.5c23.49,-16.88 44.57,-33.8 67.46,-49.42 22.16,-15.14 120.19,-82.14 139.35,-86.97 13.78,107.81 -83.23,197.09 -157.57,227.61 -29.27,12.01 -59.96,34.41 -85.22,31.33l-1.38 -37.06c-2.53,-52.43 4.29,-61.72 37.36,-85.49zm-957.88 212.41c-56.76,-3.82 -67.37,-43.94 -95.19,-76.77 -28.38,-33.49 -52.14,-49.54 -73.93,-89.51 41.85,1.2 84.88,7.84 125.38,13.56 188.74,26.7 95.2,54.59 43.74,152.72z"/>
    <path class="fil7 str0" d="M8591.25 1120.89c64.56,559.85 -15.55,1039.4 -15.1,1623.76 0.11,138.78 106.98,168.56 204.11,222.82 56.58,31.62 243.42,136.62 301.07,138.84l25.83 -33.97 -77.95 -61.1c-133.94,-104.76 -106.71,-101.06 -99.71,-300.1 6.04,-171.54 12.86,-347.55 22.48,-518.82 9.59,-170.69 17.39,-356.28 17.55,-527.27 0.15,-161.87 -11.97,-382.42 6.88,-535.02l203.15 -5.95c3.24,-33.9 -0.16,-53.46 -3.76,-82.04 -1.4,-11.07 -2.46,-28.52 -4.35,-38.39l-13.18 -31.49 -185.25 -9.17c-36.38,-349.86 50.2,-592.13 -98.12,-396.85 -267.34,351.94 -501.82,442.9 -566.29,504.71l0.58 47.3 282.06 2.74z"/>
    <path class="fil7 str0" d="M9245.27 1339.07c2.63,158.39 18.84,749.62 12.33,861.6l-1.97 636.12c3.9,107.17 -13.84,132.22 65.47,183.73 101.35,65.84 225.45,113.31 350.24,160.52 59.56,22.53 124.3,44.51 186.39,64.81 80.12,26.19 126.6,60.16 178.4,-3.6 19.22,-23.67 36.8,-47.79 55.88,-69.86l125.04 -126.03c30.79,-29.52 65.63,-52.33 41.28,-76.52 -45.35,-21.16 -438.59,-33.07 -504.48,-25.81 36.56,62.95 226.75,44.61 291.82,88.58 -1.07,41.16 -138.84,130.35 -138.84,130.35 -31.33,-3.76 -240.45,-114.83 -264.99,-134.8 -13.03,-451.29 -38.97,-1266.17 -26.59,-1684.57l247.45 -15.25 8.23 -128.04 -262.43 1.89c-19.47,-126.76 -5.59,-484.41 -34.69,-566.1 -44.63,3.94 -52.43,44.07 -74.56,85.65 -59.76,112.32 -113.72,202.66 -189.56,304.27 -49.79,66.71 -98.76,120.51 -147.76,178.89 -45.4,54.09 -185.58,135.93 25.16,134.53l58.18 -0.36z"/>
    <path class="fil7 str0" d="M9850.05 1473c-41.57,344.2 -26.88,337.74 -23.14,677.46 0.98,88.85 -13.05,159.18 -13.58,236.98 70.45,57.3 284.8,329.49 413,346.64 207.72,27.8 174.62,0.85 349.38,-224.32 105.29,-135.65 94.97,-94.98 15.32,-223.15 -13.51,-21.76 -21.29,-31.41 -33.87,-49.88 -14.97,-21.96 -16.45,-36.18 -48.58,-31.27l-15.2 54.92c-22.23,117.9 -72.43,305.78 -127.96,398.61 -155.82,-51.66 -161.66,-243.46 -167.22,-358.23 -4.99,-103.04 -21.35,-434 0.89,-510.46 119.51,1.49 272.46,51.98 388.13,81.63 96.63,24.77 93.76,9.42 141.5,-54.5 21.2,-28.37 80.3,-118.6 71.96,-158.03l-127.83 -341.94c-29.15,-83.21 -201.94,-148.05 -282.36,-186.73 -66.31,-31.89 -124.55,-45.93 -181.48,-0.34l-324.7 260.94c-34.02,25.09 -27.63,26.79 -34.26,81.67zm371.24 -187.97c12.21,-46.46 20.45,-64.21 72.12,-62.77 20.09,37.57 183.85,452.79 185.65,485.84l-286.43 -27.57c-3.12,-56.84 12.19,-332.89 28.66,-395.5z"/>
    <path class="fil7 str0" d="M10849.96 1341.31c6.43,321.36 22.3,732.43 18.15,1043.47 -2.21,165.13 7.94,333.29 -148.19,419.53 -21.52,11.89 -39.31,11.43 -59.33,24.03l11.5 36.68c50.22,10.88 86.89,-10.44 234.77,26.29 69.46,17.25 132.9,39.52 202.94,56.63 187.2,45.73 328.63,50.02 526.65,45.2l4.41 -39.19c-46.18,-26.43 -267.73,-26.42 -355.52,-156.67 -38.25,-56.76 -51.93,-848.43 -54.32,-973.22 -2.55,-133.33 -26.77,-394.02 -10.47,-510.51l66.14 -44.69c23.34,38.73 65.51,192.8 82.01,248.13 13.35,44.79 37.39,84.13 14.71,117.87 -23.08,34.34 -53.74,60.64 -67.11,97.14 14.23,21.33 10.05,16.13 30,31.63 27.77,-10.42 357.12,-267.31 373.36,-311.18 35.15,-94.98 -200.06,-454.49 -222.72,-462.72 -41.48,-1.28 -103.64,47.68 -138.3,68.52 -41.71,25.09 -95.11,62.51 -136.67,78.62 -6.29,-62.89 -5.11,-157.75 -34.19,-198.74 -39.65,1.24 -91.55,56.26 -121.82,86.56l-165.19 144.49c-47.58,36.87 -143.76,111.63 -147.36,172.49l96.55 -0.36z"/>
    <path class="fil7 str0" d="M5147.47 1938.62c-17.23,-28.75 -144.53,-474.72 -126.99,-508.45 31.49,-32.83 80.92,-34.26 97.97,-73.03l-518.02 22.87c-43.53,1.28 -46.12,-7.3 -55.92,25.6 40.65,16.31 60.6,11.67 80.12,43.24 11.29,18.26 26.04,68.18 34.15,91.19l181.22 572.11c19.77,66.1 38.21,126.52 57.76,193.35 22.35,76.4 6.92,64.27 -57.46,168.22l-197.58 311.28c-231.01,15.85 -478.15,22.17 -704.55,-49.28 3.8,-115.92 46.83,-128.86 99.74,-143.68 54.51,-15.27 147.02,-31.38 184.81,-55.39 -22.02,-25.17 -133.15,-24.43 -173.47,-28.29 -52.16,-5 -136.56,-25.52 -168.9,1.12 -37.07,30.54 -158.17,162.34 -169.22,235.17 58.5,57.84 351.66,153.25 459.15,179.14 170.7,41.12 398.67,79.63 583.44,66.39 14.98,-33.72 45.11,-64.95 69.06,-98.86 169.92,-240.57 321.55,-471.78 463.13,-734.07 88.6,-164.14 345.7,-621.94 414.57,-781.65 16.48,-38.2 53.03,-81.59 53.28,-117.93 -89.81,12.19 -290.62,-14.29 -398.07,-16.91 17.14,17.23 18.38,21.9 43.79,35.66l64.26 28.76c-11.68,41.69 -40.41,138.9 -56.82,178.34 -25.39,61.01 -220.01,406.76 -259.45,455.1z"/>
    <path class="fil7 str0" d="M3736.75 2268.59c-19.09,-105.83 -61.75,-797.12 -64.7,-921.56 -1.52,-64.05 -5.63,-128.86 -7.22,-192.22 -0.85,-33.68 -1.07,-66.98 -2.53,-100.69 -1.76,-40.52 -9.87,-67.36 10.12,-94.47 43.84,-5.44 62.87,114.54 75.43,160.64 16.52,60.61 45.93,140.54 51.39,204.49 -31.17,23.77 -69.14,42.37 -38.33,75.53 17.11,8.49 -23.75,14.63 25.35,4.33l256.36 -155.45c37.46,-25.13 61.1,-33.79 45.85,-100.67 -16.05,-70.39 -54.07,-147 -80.14,-213.08 -59.93,-151.92 -83.28,-259.01 -247.02,-151.87 -25.6,16.74 -82.13,57.46 -102.37,65.92 -17.57,-43.65 -17.54,-127.13 -25.24,-184.05 -5.02,-37.11 1.25,-37.05 -24.57,-50.6 -73.33,-38.47 -114.3,3.06 -192.77,58.33 -60.43,42.56 -113.99,80.03 -171.13,121.61 -26.61,19.38 -55.21,39.54 -83.17,59.19 -55.62,39.08 -72.4,42.45 -75.43,73.87 39.02,17.74 166.68,4.45 221.5,4.91 27.88,63.08 24.93,981.53 24.93,1167.49 0,54 13.3,151.71 -20.52,184.57 -44.91,43.65 -78.28,22.83 -104.72,99.97 125.57,2.76 517.11,14.65 614.31,-5.53 -8.07,-66.73 -69.7,-23.67 -85.38,-110.66z"/>
    <path class="fil7 str0" d="M3130.5 2223.2c-16.94,-239.72 45.53,-685.72 -16.58,-895.56 -19.3,-65.22 -103.23,-170.02 -145.13,-206.49l-170.09 -181.26c-36.16,-40.09 -81.98,-81.19 -112.32,-120.27 -98.96,-1.33 -386.51,192.47 -437.6,242.86 0.07,65.8 44.98,155.93 72.41,204.26 17.66,31.11 80.45,157.68 113.95,170.69l20.3 -9.78c2.12,-46.36 -6.01,-99.33 9.22,-141.42 20.42,-56.42 231.17,-156.05 285.89,-164.4 32,339.66 42.3,637.3 29.14,978.19 -1.79,46.2 -0.61,118.06 -7.37,160.39 -6.09,38.14 -49.56,78.3 -87.5,88.78 -28.55,-73.4 -57.52,-193.6 -81.2,-276.93 -25.09,-88.3 -43.41,-219.62 -51.13,-315.73 32.15,-30.81 55.07,-60.83 85.9,-87.04 52.78,-44.85 86.13,-54.64 95.75,-82.27 -69.27,-19.67 -236.82,-17.65 -317.92,-12.47 -53.68,3.44 -265.66,40.38 -287.42,34.93 -13.48,-189.87 -4.64,-412.74 -4.57,-605.78 0.06,-186.23 -12.24,-295.18 84.97,-450.07 20.02,-31.89 23.58,-14.73 34.3,-52.89 -181.6,0.29 -283.38,24.71 -513.5,16 -47.96,-1.82 -111.56,-16.28 -154.59,-11.09 6.96,114.02 79.51,-52.68 95.21,238.42 6.57,121.76 51.61,964.88 27.09,1012.84 -47.52,48.18 -330.33,237.34 -417.89,241.25 -5.32,-120.1 -52.45,-1138.07 -11.18,-1238.44 24.03,-58.45 66.85,-55.3 65.93,-113.1 -168.9,-3.75 -365.75,11.3 -541.61,12.41 -54.11,0.34 -131.33,-16.13 -168.08,6.14 11.09,53.21 30.08,6.48 104.57,92.16 37.91,43.62 31.6,97.5 34.79,167.13 13.48,294.41 42.89,908 30.94,1151.94 -61.19,-7.91 -158.44,-68.71 -209.25,-95.65 -45.66,-24.22 -161.08,-92.74 -178.29,-134 33.49,-14.3 71.99,-42.1 110.6,-63.01 23.06,-12.49 35.96,-19.16 59.91,-32.46 25.63,-14.24 38.85,-14.79 37.58,-51.02 -209.88,30.44 -141.91,24.5 -318.84,72.88 4.25,89.86 140.33,266.1 183.9,296.03 113.66,78.08 250.86,117.81 318.98,164.77 15.67,179.13 5.34,395.66 1.48,577.48 -5.05,237.68 -68.21,237.12 -192.18,310.31 -19.2,11.34 -10.04,0.42 -17.9,16.68 -14.34,29.63 2.22,24.57 2.44,24.94 20.36,19.4 588.06,0.19 785.85,50.37 1.29,0.32 19.14,4.64 19.4,4.66 26.94,1.48 15.36,-1.3 24.34,-5.26 -12.15,-40.71 -44.39,-39.11 -78.13,-66.64 -93.84,-76.56 -58.36,-182.16 -60.33,-376.92 -1.94,-191.07 -7.2,-384.83 -4.92,-576.02 157.67,-37.66 301.09,-89.5 408.8,-167.05 13.97,-19.4 14.81,-19.35 17.15,9.16 -8.14,75.48 9.97,267.93 12.41,357.45 4.87,178.83 3.91,567.3 -35.61,730.45 -36.68,151.44 -103.2,156.49 -167.21,215.1 5.34,26.96 10.54,29.75 20.19,52.01 130.25,-7.4 259.2,-14.78 390.91,-6.14 76.83,5.04 322.36,42.53 370.17,35.25 31.68,-92.12 -111.04,1.64 -149.85,-289.69 -18.84,-141.48 -13.96,-1192.97 -13.67,-1374.29 63.93,-36.02 168.92,-66.26 257.63,-75.41 -29,40.7 -72.25,68.66 -105.74,112.66 -120.48,158.31 -77.27,162.48 30.54,491.54 18.15,55.4 35.39,107.54 53.68,164.02 26.61,82.18 20.64,98.28 110.53,114.96 108.39,20.12 176.98,-108.8 278.96,-153.15 3.91,80.02 13.82,137.18 92.6,144.71 134.28,12.83 155.37,-99.57 209.41,-145.44 37.22,-31.59 171.02,-138.72 188.28,-176.71 -53.62,3.88 -69.02,7.24 -118.5,-9.97z"/>
   </g>
  </g>
 </g>
</svg>
