<?xml version="1.0" encoding="UTF-8"?>
<!DOCTYPE svg PUBLIC "-//W3C//DTD SVG 1.1//EN" "http://www.w3.org/Graphics/SVG/1.1/DTD/svg11.dtd">
<!-- Creator: CorelDRAW 2021 (64-Bit) -->
<svg xmlns="http://www.w3.org/2000/svg" xml:space="preserve" width="297mm" height="100mm" version="1.1" style="shape-rendering:geometricPrecision; text-rendering:geometricPrecision; image-rendering:optimizeQuality; fill-rule:evenodd; clip-rule:evenodd"
viewBox="0 0 29700 10000"
 xmlns:xlink="http://www.w3.org/1999/xlink"
 xmlns:xodm="http://www.corel.com/coreldraw/odm/2003">
 <defs>
  <style type="text/css">
   <![CDATA[
    .fil0 {fill:black}
    .fil1 {fill:white}
   ]]>
  </style>
   <clipPath id="id0">
    <rect x="220.96" y="79.28" width="29499.4" height="9900.32"/>
   </clipPath>
 </defs>
 <g id="Capa_x0020_1">
  <metadata id="CorelCorpID_0Corel-Layer"/>
  <g style="clip-path:url(#id0)">
   <image id="Harry-Potter-Logo-PNG.png" x="220.96" y="79.29" width="29499.39" height="9900.31" xlink:href="Sin título-3_Images\Sin título-3_ImgID1.png"/>
  </g>
  <g id="_2669117100896">
   <path class="fil0" d="M4060.74 4430.26c-50.13,24.19 -182.27,136.46 -241.55,177.48 -130.34,90.2 -709,472.28 -825.13,428.88 -23.02,-281.6 -30.21,-595.76 -35.63,-879.37 -11.56,-605.36 -32.05,-1208.57 -32.27,-1814.15 -0.06,-190.53 -18.63,-432.22 125.04,-565.52 73.37,-68.08 71.66,-13.59 87.47,-149.62 -475.34,8.75 -1178.24,47.73 -1642.58,20.76 -86.21,-5.01 -148.49,-15.38 -160.15,76.81 121.99,33.44 231.79,124.28 286.1,200.97 82.41,116.36 66.36,263.46 72.26,424.76 11.57,316.94 24.71,635.82 35.6,952.88 5.43,158.08 4.56,325.09 15.91,480.83 11.85,162.74 3.61,324.54 13.54,486.4 18.41,300.09 27.37,666.93 12.44,965.88 -171.97,-10.41 -927.35,-440.69 -988.48,-578.43l431.41 -244.16c69.29,-39.35 109.41,-33.71 107.35,-128.27 -213.31,24.19 -659.56,100.16 -809.8,194.06 -15.79,74.35 152.23,343.75 189.11,405.86 77.9,131.16 176.96,247.52 281.16,331.23 82.7,66.44 282.46,159.08 393.4,211.35 57.09,26.9 389.16,176.75 413,199.48 9.02,398.55 26.12,1332.68 -19.18,1720.56 -23.53,201.45 -118.36,319.61 -279.54,426.82 -85.23,56.7 -178.53,85.46 -234.24,122.04l-14.87 72.52c53.04,35.25 172.87,21.19 251.31,21.99 471.83,4.87 1177.5,8.8 1627.61,79.53 52.97,8.32 210.31,59.16 231.64,37.02 36.36,-53.53 -139.28,-135.33 -180.04,-165.08 -221.68,-161.84 -156.91,-319.8 -163.4,-569.76 -3.2,-123.25 -2.37,-248.06 -3.34,-371.48 -3.85,-488.68 -9.2,-976.43 -12.75,-1465.28 7,-21.25 104.1,-35.52 144.75,-45.69 52.15,-13.06 101.24,-26.13 152.55,-41.26 336.09,-99.06 484.35,-176.71 765.34,-366.66 63.08,272.12 54,1624.04 44.74,1889.29 -11.67,334.16 -8.27,974.51 -238.71,1227.49 -132.92,145.93 -192.97,145.05 -271.6,213.12 2.41,59.29 43.55,85.45 56.61,135.61 323.73,-29.76 667.79,-34.69 994.57,-16.88 155.65,8.49 313.52,23.9 466.42,41.9 82.71,9.74 397.02,65.49 448.38,50.45 17.8,-19.2 24.85,-41.21 32.33,-71.53 -89.94,-110.04 -350.54,-94.04 -410.98,-721.93 -16.82,-174.67 -13.47,-372.02 -14.83,-549.53 -3.48,-452.55 -24.91,-2797.11 -12.78,-2845.28 10.38,-19.3 5.72,-13.85 29.64,-27.84l111 -51.49c135.77,-53.31 396.56,-127.49 534.09,-130.15 -48,53.33 -90.5,89.11 -140.22,136.5 -110.54,105.34 -343.84,340.56 -332.96,515.09 6.72,107.81 84.97,338.04 118.01,442.87l278.99 845.1c68.58,208.56 41.54,245.59 272.93,292.77 196.42,40.06 232.16,-39.75 386.46,-155.13l240.17 -178.61c25.52,-17.95 60.59,-47.79 83.28,-58.03 27.23,205.48 15.66,346.77 233.81,372.07 217.29,25.2 320.74,-87.29 399.32,-202.4 103.83,-152.13 244.94,-259.6 382,-377.97l81.39 -73.57c38,-38.94 135.28,-106.3 145.04,-161.16 -83.78,17 -194.15,27.8 -277.14,-9.43 -31.22,-14.01 -14.75,-1 -28.73,-23.45 -26.02,-92.43 97.23,-1907.31 -55.22,-2296.24 -67.63,-172.51 -180.65,-276.29 -291.04,-406.62l-236.95 -259.52c-17.22,-18.76 -33.66,-30.41 -50.95,-49.53l-440.04 -459.37c-35.53,-36.93 -58,-77.29 -138.42,-49.41 -441.85,153.18 -903.59,547 -1007.56,587.8 -18.74,216.3 193.51,562.63 305.24,744.27 42.81,69.59 91.25,158.47 134.77,218.23 15.54,-3.54 27.31,-6.49 43.66,-11.83 22.47,-7.33 22.83,-6.73 37.45,-18.01 -2.48,-120.22 -15.11,-247.7 21.95,-356.88 39.09,-115.18 341.77,-246.54 454.57,-305.37 31.07,-16.2 244.39,-127.9 264.16,-101.76 61.66,81.52 92.54,1446 93.69,1632.33 2.55,417.26 -3.72,841.04 -36.07,1256.23 -3.59,46.08 -3.64,52.11 -33.03,76.01 -20.76,16.86 -42.4,32.11 -60.96,47.85 -39.85,33.78 -66.74,77.96 -132.22,83.77 -77.45,-260.44 -242.26,-802.97 -274.14,-1050.34 -12.32,-95.57 -22.22,-194.51 -34.88,-290.29 -30.83,-233.25 -20.98,-153.42 144.07,-319.77 15.91,-16.03 24.08,-29.14 40.54,-44.43 78.78,-73.14 127.88,-128.67 245.31,-173.53l8.73 -41c-104.2,-53.52 -640.62,-41.52 -788.23,-34.3 -128.23,6.27 -257.16,18.91 -381.01,38.17 -61.53,9.56 -119.31,19.48 -178.67,31.72 -221.56,45.64 -184.42,78.94 -186.88,-161.55l-6.29 -1356.74c1.21,-411.21 -29.79,-657.41 149.9,-1013.74 17.78,-35.27 46,-93.92 69.44,-124.67 31.45,-41.26 71.53,-55.01 83.64,-121.08 -141.84,-2.85 -281.24,14.37 -419.72,25.73 -139.6,11.45 -284.1,19.45 -425.06,21.58 -147.19,2.23 -288.72,-6.11 -434.45,-8.4 -140.78,-2.23 -279.14,-34.1 -409.22,-35.41 -3.71,142.54 126.44,110.07 196.15,236.88 37.72,68.6 40.09,291.22 46.83,384.97 19.72,274.18 33.69,548.44 45.21,824.25 19.3,462.16 48.22,1277.29 30.43,1718.74z"/>
   <path class="fil0" d="M19397.48 4281.29c17.53,-34.02 111.91,-57.84 147.4,-73.62 146.92,-65.31 196.69,-101.88 336.9,-107.23 109.21,-4.16 177.09,-21.97 185.72,25.62 44.58,245.83 115.72,956.2 119.84,1209.69 1.12,68.99 8.84,134.16 10.15,201.19 1.39,70.53 -7.34,140.55 -8.88,209.87 -5.81,261.42 -19.72,574.8 -74.29,820.74 -31.91,143.83 -25.86,115.36 -223.18,219.2 -159.01,83.68 -176.24,61.78 -229.19,9.44 -168.93,-166.98 -155.39,-148.73 -175.65,-382.31 -63.27,-729.25 -88.82,-1392.96 -88.82,-2132.59zm-2777.11 -480.21c105.63,-9.04 457.69,46.4 575.82,80.27 117.37,33.66 -28.76,190.6 -64.9,238.61 -67.4,89.54 -81.3,127.13 -142.93,93.76 -23.15,-12.53 -103.34,-105.64 -129.7,-133.97l-238.29 -278.67zm2781.02 216.59c-25.61,-40.07 -16.42,-105.63 -15.47,-155.16 1.17,-60.54 -0.65,-104.14 30.73,-131.9 71.11,-62.9 533.89,-379.85 581.7,-401.26 41.36,64.69 -3.66,207.43 -35.79,264.99 -42.94,76.95 -92.19,131.36 -145.94,179.76 -151.27,136.22 -156.77,113.42 -312.01,184.01 -45.32,20.61 -68.68,41.94 -103.22,59.56zm-2994.25 -411.08c-20.89,-721.88 -14.58,-1529.15 -14.75,-2263.6 -0.05,-237.92 -17.26,-228.65 114.9,-265.7l467.53 -101.35c72.82,-5.03 91.7,22.29 102.89,84.62 138.01,768.87 163.46,1712.69 163.46,2486.09 -121.74,11.99 -201.87,-25.19 -432.41,3.05 -133.07,16.3 -267.67,45.89 -401.62,56.89zm-1083.94 219.44c-138.94,-56.54 -283.83,-190.98 -472.71,-223.68 0.73,185.37 62.22,447.17 92.38,633.43 33.98,209.83 66.97,418.47 99.46,628.09 25.2,162.6 163.82,1124.58 164.55,1285.61 -69.08,-19.64 -157.8,-143.18 -211.93,-198.65l-128.05 -127.24 668 4059.88c73.86,-153.3 167.19,-1779.19 196.2,-2183.43 6.86,-95.62 9.52,-231.47 24.74,-318.11 25.08,24.36 205.47,392.32 248.4,475.13 54.44,105.03 54.55,121.84 116.8,129.16l19.95 -2579.32c20.01,15.79 156.81,305.17 179.37,350.81l154.35 310.83c4.21,8.6 6.21,13.72 10.32,20.7 9.26,15.7 4.69,10.58 16.81,22.15 64.55,-61.84 43.71,-82.79 33.67,-240.43l-89.12 -1450.13c-9.07,-181.2 -36.74,-418.61 -24.53,-595.08 44.03,16.96 124.85,168.62 154.47,218.24l289.11 470.55c77.73,131.45 60.73,135.61 252.33,103.78 272.71,-45.3 594.94,-167.23 820.68,-311.56 57.71,-36.89 179.92,-131.26 205.32,-174.43 57.27,3.54 359.14,89.51 370.37,125.71 0.09,0.3 -5.77,1457.92 2.82,1635.88 9.89,204.92 50.99,379.9 193.35,520.65 118.42,117.08 251.6,234.99 387.38,341.28l344.99 275.14c76.91,62.01 143.19,123.62 284.15,128.61 268.01,9.5 440.46,-92.82 641.29,-190.52 212.76,-103.5 367.11,-185.16 495.1,-326.78 167.65,-185.52 188.11,-292.89 224.14,-604.71 62.78,-543.29 8.66,-1015.77 -52.9,-1545.96 -22.34,-192.4 -51.74,-541.99 -113.67,-706.39 -53.49,-142.02 -164.83,-257.02 -274.09,-346.27 -139.22,-113.71 -164.56,-148.24 -350.08,-270.07 -53.34,-35.04 -199.42,-131.15 -263,-147.68 -217.97,-56.64 -933.46,395.16 -1124.53,519.6 -91.43,59.55 -171.86,97.89 -230.54,180.41 -59.85,84.17 -56,195.42 -137.73,281.07 -108.32,-0.34 -226.99,-72.2 -327.97,-91.75 17.02,-349.09 58.79,-718.11 90.58,-1065.64 16.54,-180.76 31.23,-359.07 44.61,-540.11 25.69,-347.6 55.68,-373 -175.54,-663.3 -43.97,-55.21 -84.58,-106.82 -127.74,-159.23l-724.42 -872.29c-20.37,-25.5 -49.58,-55.87 -64.88,-80.98 -132.65,-10.51 -316.55,74.42 -433.53,118.46 -109.51,41.23 -308.63,124.23 -424.15,135.41 -7.6,-95.35 -10.92,-164.05 -2.78,-261.99 5.98,-71.91 21.05,-172.76 16.17,-242.4 -96.64,-12.87 -270.01,-0.61 -374.44,0.76 -414.97,5.43 -756.67,-28.01 -1155.26,-28.01 1.18,104.56 209.42,1635.49 228.45,1779.76 64.05,485.53 191.25,1339.45 213.28,1795.04z"/>
   <path class="fil0" d="M28286.09 3188.18c26.71,43.59 82.22,249.09 103,315.61 33.05,105.84 65.13,208.24 97.56,313.14 66.31,214.49 98.51,221.47 32.98,310.22 -32.87,44.53 -153.89,199.33 -170.12,239.91 33.94,28.82 48.16,43.38 77.8,83.13 29.96,-11.97 281.55,-211.01 324.9,-245.55 107.61,-85.77 212.46,-169.46 319.53,-254.13 354.29,-280.17 394.45,-303.91 199.05,-708.25 -62.57,-129.46 -328.67,-602.19 -423.12,-724.24 -58.23,-75.24 -158.97,6.47 -198.26,33.57 -59.12,40.79 -487,302.75 -533.36,320.54 -11.28,-103 -20.53,-208.4 -31.79,-312.19 -4.21,-38.77 -10.96,-114.68 -22.93,-147.17 -44.83,-121.77 -148.54,1.33 -193.5,39.45l-181.86 159.23c-168.98,141.06 -363.77,328.04 -540.56,474.78 -27.94,23.2 -68.99,53.81 -92.53,78.23 -72.15,74.85 -120.6,126.56 -116.65,223.36l249.09 -9.75c-2.35,240.77 8.49,462.62 13.31,701.65 3.91,194.04 1.14,385 11.72,578.19 10.27,187.63 4.54,394.79 6.65,584.73 2.16,193.92 5.54,387.4 5.54,581.46 0,267.93 22.27,748.08 -85.07,944.43 -21.55,39.41 -56.93,85.39 -83.55,118.29 -32.66,40.37 -64.46,69.29 -97.56,103.94 -86.94,91 -173.29,102.42 -265.34,131.3l44.58 107.14c493.47,-21.81 606.26,77.04 1068.96,192.82 150.89,37.76 301.65,74.84 463.09,94.58 210.43,25.73 651.29,33.29 901.65,26.33l2.7 -106.25c-57.88,-28.39 -717.03,-69.64 -906.38,-398.23 -63.49,-110.18 -55.43,-434.51 -62.28,-586.06l-66.12 -1892.04c-6.55,-248.26 -45.17,-1077.9 -33.81,-1252.52l182.68 -119.65z"/>
   <path class="fil0" d="M23122.73 3369.89c5.72,678.67 30.13,1354.73 31.52,2035.56 0.69,341.3 -11.42,681.13 -11.27,1023.37 0.15,320.96 -10.57,701.14 19.98,1015.66 4.11,42.31 19.25,58.63 41.02,81.49 26.81,28.14 40.72,37.36 72.85,59.02 54.17,36.52 100.49,67.08 156.93,98.94 312.58,176.46 1132.06,483.23 1485.57,576.28 152.58,40.16 239.52,-166.06 353.6,-278.26 26.88,-26.44 42.16,-37.33 66.56,-65.07 22.17,-25.21 39.29,-45.55 61.96,-70.08l224.82 -224.43c14.87,-12.99 102.85,-60.58 65.21,-125.42 -23.6,-32.43 -91.78,-29.23 -142.41,-32.42 -227.96,-14.35 -1033.52,-80.67 -1144.77,-35.12 29.38,64.75 142.14,71.62 232.23,90.54 107.96,22.67 377.02,69.24 479.13,102.43 24.52,7.97 38.96,17.47 33.72,53.9 -4.72,32.82 -141.85,138.81 -173.32,164.15 -228.38,183.96 -144.19,165.92 -415.31,34.3 -75.7,-36.74 -143.28,-77.37 -216.94,-116.1 -71.59,-37.65 -147.77,-75.53 -219.1,-114.22 -18.75,-170.72 -14.86,-345.48 -23.53,-517.77 -8.73,-173.28 -8.55,-353.38 -12.29,-527.13 -3.85,-178.93 -7.57,-356.27 -11.1,-535.07l-17.33 -1069.89c-1.79,-180.77 -4.01,-361.93 -3.97,-542.69 0.06,-238.91 -26.09,-882.5 -7.79,-1066.5l628.97 -39.53c25.07,-82.41 18.53,-234.34 21.54,-329.18l-668.41 13.26c-15.73,-399.18 -42.46,-795.87 -55.01,-1190.75 -2.75,-86.83 9.59,-249.03 -60.88,-243 -48.55,4.17 -99.55,125 -127.44,179.14 -71.21,138.23 -142.04,271.46 -221.36,398.7 -153.96,246.97 -336.16,505.31 -525.39,715.21l-224.9 240.03c-54.43,58.24 -137.86,122.95 -108.96,194.89 17.91,44.58 59.41,41.9 108.88,44.91 105.02,6.4 202.26,3.72 306.99,0.85z"/>
   <path class="fil0" d="M20753.19 2692.45l0.99 122.7c209.06,1.22 417.08,4.21 624.2,3.17 93.47,-0.46 94.25,-45.14 113.94,191.68 7.93,95.45 17.55,190.43 23.52,286.52 61.93,998.05 -20.48,1468.69 -55.94,2403.2 -15.36,404.91 -26.37,819.59 -26.37,1225.28 0,330.7 245.6,407.68 519.48,557.53 74.57,40.8 699.68,368.93 737.38,349.97 31.17,-35.45 62.65,-59.9 84.61,-101.88 -40.3,-18.35 -109.71,-70.73 -144.79,-96.14 -84.48,-61.2 -202.82,-156.47 -267.92,-228.15 -96.64,-106.43 -45.36,-435.47 -39.02,-589.87 15.96,-388.38 41.02,-795.08 50.76,-1178.43 14.78,-581.53 52.29,-1126.91 50.43,-1721.12 -0.43,-138.23 -12.7,-1017.01 14.18,-1060.68 7.72,-12.55 29.07,-16.13 48.08,-17.75l476.5 -7.47c-0.81,-125.95 -28.87,-268.8 -42.97,-393.97l-482.17 -6.23c-20.95,-64.89 -29.21,-913.33 -30.83,-1049.12 -3.4,-283.1 -140.79,-61.51 -218.86,42.64l-179.18 224.06c-86.54,100.13 -311.18,342.47 -394.77,411.23 -139.15,114.47 -211.27,184.04 -374.15,308.3l-320.27 222.43c-51.12,33.1 -122.33,68.87 -166.83,102.1z"/>
   <path class="fil0" d="M13285.36 3121.19c25.92,29.54 86.05,71.77 126.81,94.38 62.93,34.92 90.11,40.94 164.99,58.83 -21.59,69.53 -54.53,144.22 -79.02,220.58 -23.05,71.86 -42.19,169.04 -68.47,233.91l-209.66 395c-138.72,234.18 -264.93,483.03 -415.94,723.51 -4.5,7.17 -9.36,15.27 -15.5,23.61l-15.83 18.77c-17.04,-13.92 -19.44,-18.81 -29.32,-44.52 -57.34,-149.31 -313.89,-1140.46 -312.67,-1176.46 5.37,-158.81 226.83,-136.19 267.46,-249.49 -239.96,8.4 -473.14,30.4 -716.25,37.93 -122.07,3.78 -242.79,6.78 -364.59,10.34 -105.48,3.09 -250.44,6.67 -353.61,17.99 -13.15,19.83 -22.05,33.31 -25.01,59.21 151.79,41.51 173.58,-2.52 246.16,194.7 176.8,480.39 381.56,1173.18 535.23,1674.23 20.7,67.49 140.6,455.63 146.37,513.02 3.84,38.23 -6.85,57.42 -24.42,80.63 -58.96,77.94 -333.88,518.43 -387.5,604.81 -58.23,93.8 -113.04,178.06 -170.3,271.62 -107.23,175.22 -49.87,146.75 -284.23,159.84 -283.02,15.81 -570.82,6.54 -851.2,-20.46 -157.82,-15.2 -650.03,-58.27 -742.36,-136.93 2.07,-84.54 42.72,-171.38 70.73,-243.34 21.07,-54.14 20.72,-65.11 74.86,-80.15l480.93 -131.68c58.79,-16.51 84.32,-15.27 97.53,-48.77 -26.45,-28.56 -58.94,-24.92 -107.75,-26.77l-574.64 -54.71c-141.35,-12.33 -118.4,-24.82 -188.01,39.85 -71.34,66.3 -429.64,423.24 -421.41,584.33 90.82,72.64 423.91,207.05 554.94,257.07 193.3,73.79 405.48,139.06 616.46,189.9 450.39,108.55 962.27,182.08 1450.37,168.16 16.41,-35.32 64.91,-90.89 90.58,-125.67 230.3,-312.04 405.56,-567.82 617.23,-894.79 372.81,-575.89 629.39,-1049.21 950.76,-1646.18 191.66,-356.02 433.12,-776.28 604,-1117.4 77.07,-153.87 133.58,-287.87 214.1,-436.84 26.26,-48.59 63.32,-88.31 67.76,-150.42 -190.36,23.45 -323.99,-10.03 -508.82,-20.25 -169.38,-9.37 -344.74,-8.93 -510.76,-27.39z"/>
   <path class="fil0" d="M25509.89 4234.66c-0.72,-240.39 24.83,-502.48 40.53,-743.51 7.38,-113.38 20.47,-410.85 169.95,-419.17 69.65,-3.87 72.42,48.29 92.63,100.6 72.73,188.19 147.52,373.35 221.87,561.13 38.08,96.15 73.72,188.63 111.55,283.9 22.93,57.77 107.27,226.88 95.33,281.68 -98.66,8.83 -586.78,-53.78 -731.86,-64.63zm855.11 1318.37l-59.1 4.61c-12.53,25.89 -52.77,258.91 -63.8,307.68 -32.75,144.8 -216.56,820.68 -297.35,839.21 -55.38,-8.28 -163.79,-107.54 -191.75,-138.24 -49.95,-54.85 -98.5,-113.8 -138.15,-194.84 -90.28,-184.57 -79.34,-364.15 -88.6,-586.15 -9.17,-219.56 -13.55,-437.98 -14.67,-658.95 -0.55,-109.98 -7.09,-204.06 -8.09,-309.98 -1.07,-112.61 -19.65,-213.8 32.6,-307.92 235.86,-5.36 804.89,164.47 1086.52,234.87 97.68,24.42 106.65,0.84 152.86,-50.05 131.16,-144.42 165.85,-230.73 262.4,-404.26 39.52,-71.03 20.81,-84.17 -8.69,-161.85 -20.82,-54.81 -41.59,-106.69 -62.41,-162.35 -80.5,-215.18 -164.48,-429.85 -242.36,-649.31 -9.58,-26.98 -19.05,-52.32 -29.65,-78.87 -17.91,-44.87 -14.1,-35.71 -51.45,-57.18 -51.9,-29.85 -93.23,-53.28 -144.13,-80.74 -147.37,-79.52 -441.37,-240.97 -588.25,-295.32 -72.99,-27.01 -109.9,-31.02 -195.08,-23.02 -103.73,9.75 -95.39,21.75 -156.69,68.71l-494.09 397.53c-81.67,69.11 -158.91,129.52 -245.2,196.62 -168.46,131 -146,82.39 -169.43,280.01 -15.62,131.74 -20.81,272.68 -41.01,401.48 -42.16,268.7 -36.18,119.1 -28.1,412.68 6.1,221.72 30.27,1102.14 -4.96,1299.07 -37.43,209.22 -33.88,133.02 103.84,298.46l443.94 447.71c93.38,76.96 126.66,115.11 241.44,200.5 123.58,91.93 133.6,98.77 324.3,114.85 425.85,35.89 366.07,-24.58 582.23,-304.67 55.95,-72.51 346.77,-439.05 386.2,-505.32 46.91,-78.84 21,-65.82 -20.78,-134.88 -28.84,-47.69 -55.49,-92.35 -85.3,-139.53 -29.74,-47.07 -58.55,-93.52 -88.44,-136.58 -34.68,-49.97 -70.69,-83.99 -98.8,-123.98z"/>
   <path class="fil0" d="M7549.93 2304.33c30.77,84.74 172.04,45.55 254.76,42.85 107.74,-3.53 219.82,-1.86 327.76,0.03 34.43,109.46 40.07,1266.74 41.06,1468.92 0.81,167.5 8.56,330.51 9.62,496.18l1.35 1255.95c0.01,203.7 -4.05,156.77 -210.49,294.72 -31.53,21.08 -102.77,89.22 -106.9,144.38 115.13,11.88 618.59,4.32 773.41,4.25l744.11 -9.12c52.49,-10.02 -33.3,11.44 13.31,-3.8l11.98 -5.75c47.23,-57.37 -97.06,-98.82 -154.4,-155.87 -61.84,-61.54 -60.39,-156.4 -70.8,-261.79 -20.17,-204.18 -27.08,-409.77 -45.75,-615.12l-79.61 -903.73c-7.77,-105.63 -3.56,-211.41 -13,-320.49 -20.13,-232.83 -19.77,-674.24 -30,-951.59 -3.32,-89.97 -16.63,-239.88 -8.31,-323.74 5.62,-56.55 45.78,-68.72 86.43,-36.79 34.69,27.23 39,57.28 53.63,109.34l148.97 517.78c12.07,42.72 24.75,83.44 36.19,126.74l36.09 134.51c-16.02,16.32 -21.01,25.62 -35.44,42.32 -30.19,34.93 -68.82,67.36 -110.67,120.49 16.52,26.78 33.7,40.96 53.69,76.62 53.13,-1.11 120.15,-52.77 161.41,-77.26 127.3,-75.53 510.19,-302.82 603.98,-372.91 44.57,-33.31 71.51,-98.69 54.2,-175.06 -41.13,-181.5 -189.68,-531.09 -266.34,-710.99 -123.22,-289.16 -185.31,-476.74 -532.52,-261.72l-256.75 170.28c-25.5,19.22 -12.13,21.28 -38.62,12.62 -28.22,-25.93 -40.32,-257.76 -45.47,-312 -5.05,-53.3 -10.18,-106.63 -18.05,-160.1 -12.51,-84.94 3.68,-88.56 -68.2,-117.35 -140.9,-56.43 -140.54,-70.94 -262.14,4.29 -71.86,44.46 -147.82,100.65 -216.96,147.31 -91.61,61.83 -817.57,573.22 -841.53,605.6z"/>
   <path class="fil0" d="M10105.11 2013.27l27.02 31.9c83.39,-1.95 103.79,-22.64 177.58,-37.8 -13.29,668.3 -17.62,1355.68 -20.19,2033.59 -1.27,332.89 -3.83,657.38 -43.15,984.67 -35.57,295.98 -73.15,333.21 -264.24,504.4 -52.51,47.03 -129.5,90.85 -145.34,115.79 13.58,16.07 119.78,58.53 145.92,68.93 128.65,51.17 473.67,1.05 616.01,-12.02 151.19,-13.89 279.15,-5.06 429.91,-0.53l423.78 20.18c-32.6,-49.82 -102.83,-112.01 -149.52,-157.1l-77.1 -109.4c-30.46,-66.17 -24.69,-2216.13 -26.5,-2453.8 -1.19,-156.69 -11.39,-602.81 0.07,-744.54 6.69,-82.71 99.14,-87.68 175.21,-74.59 40.65,157.72 88.75,308.61 133.59,463.27 55.54,191.58 96.11,188.12 -29.94,309.5 -13.6,13.1 -62.56,69.05 -70.68,85.13 86.43,126.87 80.36,109.77 306.93,-27.17 96.55,-58.36 569.05,-353.1 611.48,-412.02 57.07,-79.25 -54.28,-303.96 -87.95,-382.82 -67.77,-158.68 -261.19,-592.63 -351.71,-671.56 -90.92,-79.28 -237.09,35.1 -339.3,105.15 -50.92,34.9 -100.59,68.15 -150.84,104.8 -39.81,29.03 -107.29,86.33 -166.49,91.08 -32.33,-209.73 -18.3,-451.08 -32.02,-668.56 -8.57,-135.82 -166.77,-73.64 -214.98,-37.47 -34.04,25.55 -58.02,56.7 -86.57,83.92l-442.65 433.51c-74.02,70.61 -169.53,182.54 -261.03,258.46 -29.93,24.84 -75.14,59.81 -87.3,95.1z"/>
   <path class="fil1" d="M16407.14 3606.59c133.95,-11 268.55,-40.59 401.62,-56.89 230.54,-28.24 310.67,8.94 432.41,-3.05 0,-773.4 -25.45,-1717.22 -163.46,-2486.09 -11.19,-62.33 -30.07,-89.65 -102.89,-84.62l-467.53 101.35c-132.16,37.05 -114.95,27.78 -114.9,265.7 0.17,734.45 -6.14,1541.72 14.75,2263.6z"/>
   <path class="fil1" d="M19397.48 4281.29c0,739.63 25.55,1403.34 88.82,2132.59 20.26,233.58 6.72,215.33 175.65,382.31 52.95,52.34 70.18,74.24 229.19,-9.44 197.32,-103.84 191.27,-75.37 223.18,-219.2 54.57,-245.94 68.48,-559.32 74.29,-820.74 1.54,-69.32 10.27,-139.34 8.88,-209.87 -1.31,-67.03 -9.03,-132.2 -10.15,-201.19 -4.12,-253.49 -75.26,-963.86 -119.84,-1209.69 -8.63,-47.59 -76.51,-29.78 -185.72,-25.62 -140.21,5.35 -189.98,41.92 -336.9,107.23 -35.49,15.78 -129.87,39.6 -147.4,73.62z"/>
   <path class="fil1" d="M25509.89 4234.66c145.08,10.85 633.2,73.46 731.86,64.63 11.94,-54.8 -72.4,-223.91 -95.33,-281.68 -37.83,-95.27 -73.47,-187.75 -111.55,-283.9 -74.35,-187.78 -149.14,-372.94 -221.87,-561.13 -20.21,-52.31 -22.98,-104.47 -92.63,-100.6 -149.48,8.32 -162.57,305.79 -169.95,419.17 -15.7,241.03 -41.25,503.12 -40.53,743.51z"/>
   <path class="fil1" d="M19401.39 4017.67c34.54,-17.62 57.9,-38.95 103.22,-59.56 155.24,-70.59 160.74,-47.79 312.01,-184.01 53.75,-48.4 103,-102.81 145.94,-179.76 32.13,-57.56 77.15,-200.3 35.79,-264.99 -47.81,21.41 -510.59,338.36 -581.7,401.26 -31.38,27.76 -29.56,71.36 -30.73,131.9 -0.95,49.53 -10.14,115.09 15.47,155.16z"/>
   <path class="fil1" d="M16620.37 3801.08l238.29 278.67c26.36,28.33 106.55,121.44 129.7,133.97 61.63,33.37 75.53,-4.22 142.93,-93.76 36.14,-48.01 182.27,-204.95 64.9,-238.61 -118.13,-33.87 -470.19,-89.31 -575.82,-80.27z"/>
  </g>
 </g>
</svg>
